<svg xmlns="http://www.w3.org/2000/svg" xmlns:xlink="http://www.w3.org/1999/xlink" width="500" zoomAndPan="magnify" viewBox="0 0 375 374.999991" height="500" preserveAspectRatio="xMidYMid meet" version="1.0"><defs><g/><clipPath id="ca81bd4208"><path d="M 86.796875 54.121094 L 288.324219 54.121094 L 288.324219 281.371094 L 86.796875 281.371094 Z M 86.796875 54.121094 " clip-rule="nonzero"/></clipPath></defs><g clip-path="url(#ca81bd4208)"><path fill="#0097b2" d="M 239.695312 162.046875 C 238.550781 162.046875 237.625 161.125 237.625 159.980469 C 237.625 149.914062 230.980469 141.722656 222.816406 141.722656 C 214.652344 141.722656 208.007812 149.914062 208.007812 159.980469 C 208.007812 161.125 207.082031 162.046875 205.941406 162.046875 C 204.796875 162.046875 203.871094 161.125 203.871094 159.980469 C 203.871094 147.636719 212.371094 137.59375 222.816406 137.59375 C 233.265625 137.59375 241.765625 147.636719 241.765625 159.980469 C 241.765625 161.125 240.839844 162.046875 239.695312 162.046875 Z M 165.253906 181.074219 C 166.394531 181.074219 167.324219 182 167.324219 183.140625 C 167.324219 195.632812 175.613281 205.796875 185.804688 205.796875 C 195.996094 205.796875 204.289062 195.632812 204.289062 183.140625 C 204.289062 182 205.214844 181.074219 206.355469 181.074219 C 207.5 181.074219 208.425781 182 208.425781 183.140625 C 208.425781 197.914062 198.277344 209.929688 185.804688 209.929688 C 173.332031 209.929688 163.183594 197.914062 163.183594 183.140625 C 163.183594 182 164.109375 181.074219 165.253906 181.074219 Z M 132.464844 159.980469 C 132.464844 161.125 131.539062 162.046875 130.398438 162.046875 C 129.253906 162.046875 128.328125 161.125 128.328125 159.980469 C 128.328125 147.636719 136.828125 137.59375 147.273438 137.59375 C 157.722656 137.59375 166.222656 147.636719 166.222656 159.980469 C 166.222656 161.125 165.296875 162.046875 164.152344 162.046875 C 163.007812 162.046875 162.082031 161.125 162.082031 159.980469 C 162.082031 149.914062 155.4375 141.722656 147.273438 141.722656 C 139.109375 141.722656 132.464844 149.914062 132.464844 159.980469 Z M 265.535156 101.304688 L 271.78125 79.347656 C 272.40625 79.441406 273.039062 79.503906 273.6875 79.503906 C 274.113281 79.503906 274.546875 79.484375 274.980469 79.441406 C 278.398438 79.097656 281.46875 77.449219 283.632812 74.804688 C 285.773438 72.183594 286.765625 68.890625 286.421875 65.535156 C 285.710938 58.574219 279.425781 53.484375 272.410156 54.1875 C 268.992188 54.53125 265.921875 56.175781 263.757812 58.820312 C 261.617188 61.445312 260.625 64.734375 260.964844 68.09375 C 261.417969 72.515625 264.125 76.175781 267.839844 78.082031 L 261.46875 100.472656 C 260.085938 100.285156 258.675781 100.179688 257.242188 100.179688 L 117.878906 100.179688 C 117.101562 100.179688 116.335938 100.21875 115.570312 100.273438 L 109.257812 78.082031 C 112.96875 76.175781 115.675781 72.515625 116.128906 68.09375 C 116.472656 64.734375 115.480469 61.445312 113.335938 58.820312 C 111.175781 56.175781 108.101562 54.53125 104.6875 54.1875 C 97.683594 53.480469 91.382812 58.574219 90.671875 65.535156 C 90.328125 68.894531 91.320312 72.1875 93.464844 74.808594 C 95.625 77.453125 98.699219 79.097656 102.113281 79.441406 C 102.546875 79.484375 102.980469 79.503906 103.410156 79.503906 C 104.054688 79.503906 104.691406 79.441406 105.316406 79.347656 L 111.433594 100.851562 C 97.378906 103.800781 86.796875 116.191406 86.796875 130.988281 L 86.796875 214.144531 C 86.796875 230.382812 99.65625 243.695312 115.808594 244.613281 L 115.808594 277.933594 C 115.808594 279.304688 116.625 280.539062 117.886719 281.085938 C 118.332031 281.28125 118.804688 281.371094 119.269531 281.371094 C 120.128906 281.371094 120.972656 281.054688 121.617188 280.453125 L 158.214844 246.8125 C 159.828125 245.425781 161.898438 244.664062 164.035156 244.664062 L 257.242188 244.664062 C 274.378906 244.664062 288.324219 230.84375 288.324219 213.859375 L 288.324219 130.988281 C 288.324219 116.847656 278.65625 104.910156 265.535156 101.304688 " fill-opacity="1" fill-rule="nonzero"/></g><g fill="#0097b2" fill-opacity="1"><g transform="translate(96.738279, 313.276971)"><g><path d="M 16.609375 0 L 12.234375 -6.234375 C 11.691406 -6.191406 11.269531 -6.171875 10.96875 -6.171875 L 5.9375 -6.171875 L 5.9375 0 L 3.046875 0 L 3.046875 -20.296875 L 10.96875 -20.296875 C 13.59375 -20.296875 15.660156 -19.664062 17.171875 -18.40625 C 18.679688 -17.15625 19.4375 -15.425781 19.4375 -13.21875 C 19.4375 -11.65625 19.046875 -10.320312 18.265625 -9.21875 C 17.492188 -8.113281 16.394531 -7.3125 14.96875 -6.8125 L 19.78125 0 Z M 10.875 -8.640625 C 12.707031 -8.640625 14.109375 -9.035156 15.078125 -9.828125 C 16.046875 -10.617188 16.53125 -11.75 16.53125 -13.21875 C 16.53125 -14.6875 16.046875 -15.8125 15.078125 -16.59375 C 14.109375 -17.382812 12.707031 -17.78125 10.875 -17.78125 L 5.9375 -17.78125 L 5.9375 -8.640625 Z M 10.875 -8.640625 "/></g></g></g><g fill="#0097b2" fill-opacity="1"><g transform="translate(117.815594, 313.276971)"><g><path d="M 16.53125 -7.59375 C 16.53125 -7.382812 16.507812 -7.101562 16.46875 -6.75 L 4 -6.75 C 4.175781 -5.40625 4.769531 -4.320312 5.78125 -3.5 C 6.800781 -2.675781 8.0625 -2.265625 9.5625 -2.265625 C 11.40625 -2.265625 12.882812 -2.882812 14 -4.125 L 15.546875 -2.3125 C 14.847656 -1.507812 13.976562 -0.894531 12.9375 -0.46875 C 11.90625 -0.0390625 10.753906 0.171875 9.484375 0.171875 C 7.859375 0.171875 6.414062 -0.160156 5.15625 -0.828125 C 3.90625 -1.492188 2.9375 -2.425781 2.25 -3.625 C 1.5625 -4.820312 1.21875 -6.175781 1.21875 -7.6875 C 1.21875 -9.175781 1.550781 -10.519531 2.21875 -11.71875 C 2.882812 -12.914062 3.800781 -13.847656 4.96875 -14.515625 C 6.144531 -15.179688 7.46875 -15.515625 8.9375 -15.515625 C 10.40625 -15.515625 11.710938 -15.179688 12.859375 -14.515625 C 14.015625 -13.847656 14.914062 -12.914062 15.5625 -11.71875 C 16.207031 -10.519531 16.53125 -9.144531 16.53125 -7.59375 Z M 8.9375 -13.171875 C 7.601562 -13.171875 6.484375 -12.765625 5.578125 -11.953125 C 4.679688 -11.140625 4.15625 -10.078125 4 -8.765625 L 13.859375 -8.765625 C 13.703125 -10.054688 13.175781 -11.113281 12.28125 -11.9375 C 11.382812 -12.757812 10.269531 -13.171875 8.9375 -13.171875 Z M 8.9375 -13.171875 "/></g></g></g><g fill="#0097b2" fill-opacity="1"><g transform="translate(135.55881, 313.276971)"><g><path d="M 7.046875 0.171875 C 5.785156 0.171875 4.578125 0.00390625 3.421875 -0.328125 C 2.265625 -0.671875 1.359375 -1.101562 0.703125 -1.625 L 1.859375 -3.828125 C 2.535156 -3.347656 3.351562 -2.960938 4.3125 -2.671875 C 5.28125 -2.378906 6.257812 -2.234375 7.25 -2.234375 C 9.6875 -2.234375 10.90625 -2.929688 10.90625 -4.328125 C 10.90625 -4.785156 10.738281 -5.148438 10.40625 -5.421875 C 10.082031 -5.691406 9.671875 -5.890625 9.171875 -6.015625 C 8.679688 -6.140625 7.984375 -6.28125 7.078125 -6.4375 C 5.835938 -6.632812 4.828125 -6.859375 4.046875 -7.109375 C 3.265625 -7.359375 2.59375 -7.78125 2.03125 -8.375 C 1.46875 -8.976562 1.1875 -9.820312 1.1875 -10.90625 C 1.1875 -12.289062 1.765625 -13.40625 2.921875 -14.25 C 4.085938 -15.09375 5.644531 -15.515625 7.59375 -15.515625 C 8.625 -15.515625 9.648438 -15.390625 10.671875 -15.140625 C 11.691406 -14.890625 12.53125 -14.550781 13.1875 -14.125 L 12 -11.921875 C 10.75 -12.734375 9.269531 -13.140625 7.5625 -13.140625 C 6.382812 -13.140625 5.484375 -12.945312 4.859375 -12.5625 C 4.242188 -12.175781 3.9375 -11.660156 3.9375 -11.015625 C 3.9375 -10.515625 4.109375 -10.117188 4.453125 -9.828125 C 4.804688 -9.535156 5.238281 -9.320312 5.75 -9.1875 C 6.269531 -9.050781 6.992188 -8.898438 7.921875 -8.734375 C 9.148438 -8.515625 10.144531 -8.285156 10.90625 -8.046875 C 11.675781 -7.804688 12.332031 -7.394531 12.875 -6.8125 C 13.414062 -6.226562 13.6875 -5.414062 13.6875 -4.375 C 13.6875 -2.988281 13.09375 -1.882812 11.90625 -1.0625 C 10.71875 -0.238281 9.097656 0.171875 7.046875 0.171875 Z M 7.046875 0.171875 "/></g></g></g><g fill="#0097b2" fill-opacity="1"><g transform="translate(150.083891, 313.276971)"><g><path d="M 16.96875 -15.375 L 16.96875 0 L 14.328125 0 L 14.328125 -2.3125 C 13.765625 -1.519531 13.023438 -0.90625 12.109375 -0.46875 C 11.191406 -0.0390625 10.191406 0.171875 9.109375 0.171875 C 7.054688 0.171875 5.441406 -0.390625 4.265625 -1.515625 C 3.085938 -2.648438 2.5 -4.320312 2.5 -6.53125 L 2.5 -15.375 L 5.28125 -15.375 L 5.28125 -6.84375 C 5.28125 -5.351562 5.632812 -4.222656 6.34375 -3.453125 C 7.0625 -2.691406 8.085938 -2.3125 9.421875 -2.3125 C 10.890625 -2.3125 12.050781 -2.753906 12.90625 -3.640625 C 13.757812 -4.535156 14.1875 -5.796875 14.1875 -7.421875 L 14.1875 -15.375 Z M 16.96875 -15.375 "/></g></g></g><g fill="#0097b2" fill-opacity="1"><g transform="translate(169.711595, 313.276971)"><g><path d="M 21.859375 -15.515625 C 23.796875 -15.515625 25.328125 -14.953125 26.453125 -13.828125 C 27.585938 -12.710938 28.15625 -11.050781 28.15625 -8.84375 L 28.15625 0 L 25.375 0 L 25.375 -8.53125 C 25.375 -10.019531 25.03125 -11.140625 24.34375 -11.890625 C 23.65625 -12.640625 22.675781 -13.015625 21.40625 -13.015625 C 19.988281 -13.015625 18.863281 -12.570312 18.03125 -11.6875 C 17.207031 -10.8125 16.796875 -9.554688 16.796875 -7.921875 L 16.796875 0 L 14 0 L 14 -8.53125 C 14 -10.019531 13.65625 -11.140625 12.96875 -11.890625 C 12.289062 -12.640625 11.3125 -13.015625 10.03125 -13.015625 C 8.625 -13.015625 7.503906 -12.570312 6.671875 -11.6875 C 5.835938 -10.8125 5.421875 -9.554688 5.421875 -7.921875 L 5.421875 0 L 2.640625 0 L 2.640625 -15.375 L 5.3125 -15.375 L 5.3125 -13.078125 C 5.863281 -13.867188 6.59375 -14.472656 7.5 -14.890625 C 8.414062 -15.304688 9.453125 -15.515625 10.609375 -15.515625 C 11.804688 -15.515625 12.867188 -15.269531 13.796875 -14.78125 C 14.734375 -14.300781 15.453125 -13.597656 15.953125 -12.671875 C 16.523438 -13.554688 17.328125 -14.25 18.359375 -14.75 C 19.398438 -15.257812 20.566406 -15.515625 21.859375 -15.515625 Z M 21.859375 -15.515625 "/></g></g></g><g fill="#0097b2" fill-opacity="1"><g transform="translate(200.356318, 313.276971)"><g><path d="M 16.53125 -7.59375 C 16.53125 -7.382812 16.507812 -7.101562 16.46875 -6.75 L 4 -6.75 C 4.175781 -5.40625 4.769531 -4.320312 5.78125 -3.5 C 6.800781 -2.675781 8.0625 -2.265625 9.5625 -2.265625 C 11.40625 -2.265625 12.882812 -2.882812 14 -4.125 L 15.546875 -2.3125 C 14.847656 -1.507812 13.976562 -0.894531 12.9375 -0.46875 C 11.90625 -0.0390625 10.753906 0.171875 9.484375 0.171875 C 7.859375 0.171875 6.414062 -0.160156 5.15625 -0.828125 C 3.90625 -1.492188 2.9375 -2.425781 2.25 -3.625 C 1.5625 -4.820312 1.21875 -6.175781 1.21875 -7.6875 C 1.21875 -9.175781 1.550781 -10.519531 2.21875 -11.71875 C 2.882812 -12.914062 3.800781 -13.847656 4.96875 -14.515625 C 6.144531 -15.179688 7.46875 -15.515625 8.9375 -15.515625 C 10.40625 -15.515625 11.710938 -15.179688 12.859375 -14.515625 C 14.015625 -13.847656 14.914062 -12.914062 15.5625 -11.71875 C 16.207031 -10.519531 16.53125 -9.144531 16.53125 -7.59375 Z M 8.9375 -13.171875 C 7.601562 -13.171875 6.484375 -12.765625 5.578125 -11.953125 C 4.679688 -11.140625 4.15625 -10.078125 4 -8.765625 L 13.859375 -8.765625 C 13.703125 -10.054688 13.175781 -11.113281 12.28125 -11.9375 C 11.382812 -12.757812 10.269531 -13.171875 8.9375 -13.171875 Z M 8.9375 -13.171875 "/></g></g></g><g fill="#0097b2" fill-opacity="1"><g transform="translate(218.099534, 313.276971)"><g/></g></g><g fill="#0097b2" fill-opacity="1"><g transform="translate(225.89843, 313.276971)"><g><path d="M 16.703125 -10.53125 C 17.878906 -10.195312 18.804688 -9.597656 19.484375 -8.734375 C 20.160156 -7.878906 20.5 -6.796875 20.5 -5.484375 C 20.5 -3.722656 19.835938 -2.367188 18.515625 -1.421875 C 17.191406 -0.472656 15.265625 0 12.734375 0 L 3.046875 0 L 3.046875 -20.296875 L 12.15625 -20.296875 C 14.46875 -20.296875 16.257812 -19.832031 17.53125 -18.90625 C 18.800781 -17.976562 19.4375 -16.691406 19.4375 -15.046875 C 19.4375 -13.984375 19.1875 -13.066406 18.6875 -12.296875 C 18.195312 -11.523438 17.535156 -10.9375 16.703125 -10.53125 Z M 5.9375 -17.953125 L 5.9375 -11.453125 L 11.890625 -11.453125 C 13.378906 -11.453125 14.523438 -11.726562 15.328125 -12.28125 C 16.128906 -12.832031 16.53125 -13.640625 16.53125 -14.703125 C 16.53125 -15.765625 16.128906 -16.570312 15.328125 -17.125 C 14.523438 -17.675781 13.378906 -17.953125 11.890625 -17.953125 Z M 12.609375 -2.34375 C 14.253906 -2.34375 15.492188 -2.613281 16.328125 -3.15625 C 17.160156 -3.695312 17.578125 -4.550781 17.578125 -5.71875 C 17.578125 -7.976562 15.921875 -9.109375 12.609375 -9.109375 L 5.9375 -9.109375 L 5.9375 -2.34375 Z M 12.609375 -2.34375 "/></g></g></g><g fill="#0097b2" fill-opacity="1"><g transform="translate(247.845508, 313.276971)"><g><path d="M 9.21875 0.171875 C 7.695312 0.171875 6.328125 -0.164062 5.109375 -0.84375 C 3.890625 -1.519531 2.9375 -2.453125 2.25 -3.640625 C 1.5625 -4.828125 1.21875 -6.175781 1.21875 -7.6875 C 1.21875 -9.195312 1.5625 -10.546875 2.25 -11.734375 C 2.9375 -12.921875 3.890625 -13.847656 5.109375 -14.515625 C 6.328125 -15.179688 7.695312 -15.515625 9.21875 -15.515625 C 10.75 -15.515625 12.117188 -15.179688 13.328125 -14.515625 C 14.535156 -13.847656 15.484375 -12.921875 16.171875 -11.734375 C 16.859375 -10.546875 17.203125 -9.195312 17.203125 -7.6875 C 17.203125 -6.175781 16.859375 -4.828125 16.171875 -3.640625 C 15.484375 -2.453125 14.535156 -1.519531 13.328125 -0.84375 C 12.117188 -0.164062 10.75 0.171875 9.21875 0.171875 Z M 9.21875 -2.265625 C 10.207031 -2.265625 11.09375 -2.488281 11.875 -2.9375 C 12.65625 -3.394531 13.269531 -4.035156 13.71875 -4.859375 C 14.164062 -5.679688 14.390625 -6.625 14.390625 -7.6875 C 14.390625 -8.75 14.164062 -9.691406 13.71875 -10.515625 C 13.269531 -11.335938 12.65625 -11.96875 11.875 -12.40625 C 11.09375 -12.851562 10.207031 -13.078125 9.21875 -13.078125 C 8.238281 -13.078125 7.351562 -12.851562 6.5625 -12.40625 C 5.78125 -11.96875 5.160156 -11.335938 4.703125 -10.515625 C 4.253906 -9.691406 4.03125 -8.75 4.03125 -7.6875 C 4.03125 -6.625 4.253906 -5.679688 4.703125 -4.859375 C 5.160156 -4.035156 5.78125 -3.394531 6.5625 -2.9375 C 7.351562 -2.488281 8.238281 -2.265625 9.21875 -2.265625 Z M 9.21875 -2.265625 "/></g></g></g><g fill="#0097b2" fill-opacity="1"><g transform="translate(266.255537, 313.276971)"><g><path d="M 11.28125 -0.90625 C 10.875 -0.550781 10.367188 -0.28125 9.765625 -0.09375 C 9.171875 0.0820312 8.554688 0.171875 7.921875 0.171875 C 6.367188 0.171875 5.164062 -0.238281 4.3125 -1.0625 C 3.46875 -1.894531 3.046875 -3.085938 3.046875 -4.640625 L 3.046875 -13.078125 L 0.4375 -13.078125 L 0.4375 -15.375 L 3.046875 -15.375 L 3.046875 -18.734375 L 5.828125 -18.734375 L 5.828125 -15.375 L 10.234375 -15.375 L 10.234375 -13.078125 L 5.828125 -13.078125 L 5.828125 -4.75 C 5.828125 -3.925781 6.035156 -3.289062 6.453125 -2.84375 C 6.867188 -2.394531 7.460938 -2.171875 8.234375 -2.171875 C 9.085938 -2.171875 9.8125 -2.414062 10.40625 -2.90625 Z M 11.28125 -0.90625 "/></g></g></g></svg>